<mxfile host="app.diagrams.net" modified="2023-12-13T01:40:02.672Z" agent="Mozilla/5.0 (Windows NT 10.0; Win64; x64) AppleWebKit/537.36 (KHTML, like Gecko) Chrome/120.0.0.0 Safari/537.36" etag="DZmHwYuFSwp0g1Ma-C5X" version="22.1.7" type="device">
  <diagram id="C5RBs43oDa-KdzZeNtuy" name="Page-1">
    <mxGraphModel dx="792" dy="1132" grid="1" gridSize="10" guides="1" tooltips="1" connect="1" arrows="1" fold="1" page="1" pageScale="1" pageWidth="827" pageHeight="1169" math="0" shadow="0">
      <root>
        <mxCell id="WIyWlLk6GJQsqaUBKTNV-0" />
        <mxCell id="WIyWlLk6GJQsqaUBKTNV-1" parent="WIyWlLk6GJQsqaUBKTNV-0" />
        <mxCell id="6GwFP3exg01wJ5yeqgeh-1" value="Strart" style="ellipse;whiteSpace=wrap;html=1;" vertex="1" parent="WIyWlLk6GJQsqaUBKTNV-1">
          <mxGeometry x="330" y="80" width="120" height="80" as="geometry" />
        </mxCell>
        <mxCell id="6GwFP3exg01wJ5yeqgeh-2" value="입력:person" style="shape=parallelogram;perimeter=parallelogramPerimeter;whiteSpace=wrap;html=1;fixedSize=1;" vertex="1" parent="WIyWlLk6GJQsqaUBKTNV-1">
          <mxGeometry x="302.5" y="200" width="175" height="40" as="geometry" />
        </mxCell>
        <mxCell id="6GwFP3exg01wJ5yeqgeh-3" value="입력:Howm" style="shape=parallelogram;perimeter=parallelogramPerimeter;whiteSpace=wrap;html=1;fixedSize=1;" vertex="1" parent="WIyWlLk6GJQsqaUBKTNV-1">
          <mxGeometry x="302.5" y="280" width="175" height="40" as="geometry" />
        </mxCell>
        <mxCell id="6GwFP3exg01wJ5yeqgeh-4" value="person%Howm ===0" style="rhombus;whiteSpace=wrap;html=1;" vertex="1" parent="WIyWlLk6GJQsqaUBKTNV-1">
          <mxGeometry x="310" y="360" width="160" height="80" as="geometry" />
        </mxCell>
        <mxCell id="6GwFP3exg01wJ5yeqgeh-5" value="ok = person/Howm" style="rounded=0;whiteSpace=wrap;html=1;" vertex="1" parent="WIyWlLk6GJQsqaUBKTNV-1">
          <mxGeometry x="312.5" y="480" width="160" height="60" as="geometry" />
        </mxCell>
        <mxCell id="6GwFP3exg01wJ5yeqgeh-6" value="ok = parseInt(person/Howm)&lt;br&gt;+1" style="rounded=0;whiteSpace=wrap;html=1;" vertex="1" parent="WIyWlLk6GJQsqaUBKTNV-1">
          <mxGeometry x="520" y="480" width="160" height="60" as="geometry" />
        </mxCell>
        <mxCell id="6GwFP3exg01wJ5yeqgeh-7" value="출력:&lt;br&gt;총 ok줄이 필요합니다." style="shape=parallelogram;perimeter=parallelogramPerimeter;whiteSpace=wrap;html=1;fixedSize=1;" vertex="1" parent="WIyWlLk6GJQsqaUBKTNV-1">
          <mxGeometry x="305" y="580" width="175" height="40" as="geometry" />
        </mxCell>
        <mxCell id="6GwFP3exg01wJ5yeqgeh-8" value="" style="endArrow=classic;html=1;rounded=0;" edge="1" parent="WIyWlLk6GJQsqaUBKTNV-1">
          <mxGeometry width="50" height="50" relative="1" as="geometry">
            <mxPoint x="389.5" y="160" as="sourcePoint" />
            <mxPoint x="389.5" y="200" as="targetPoint" />
          </mxGeometry>
        </mxCell>
        <mxCell id="6GwFP3exg01wJ5yeqgeh-9" value="" style="endArrow=classic;html=1;rounded=0;" edge="1" parent="WIyWlLk6GJQsqaUBKTNV-1">
          <mxGeometry width="50" height="50" relative="1" as="geometry">
            <mxPoint x="389.5" y="240" as="sourcePoint" />
            <mxPoint x="389.5" y="280" as="targetPoint" />
          </mxGeometry>
        </mxCell>
        <mxCell id="6GwFP3exg01wJ5yeqgeh-11" value="" style="endArrow=classic;html=1;rounded=0;" edge="1" parent="WIyWlLk6GJQsqaUBKTNV-1">
          <mxGeometry width="50" height="50" relative="1" as="geometry">
            <mxPoint x="389.5" y="540" as="sourcePoint" />
            <mxPoint x="389.5" y="580" as="targetPoint" />
          </mxGeometry>
        </mxCell>
        <mxCell id="6GwFP3exg01wJ5yeqgeh-12" value="" style="endArrow=classic;html=1;rounded=0;" edge="1" parent="WIyWlLk6GJQsqaUBKTNV-1">
          <mxGeometry width="50" height="50" relative="1" as="geometry">
            <mxPoint x="389.5" y="440" as="sourcePoint" />
            <mxPoint x="389.5" y="480" as="targetPoint" />
          </mxGeometry>
        </mxCell>
        <mxCell id="6GwFP3exg01wJ5yeqgeh-13" value="" style="endArrow=classic;html=1;rounded=0;" edge="1" parent="WIyWlLk6GJQsqaUBKTNV-1">
          <mxGeometry width="50" height="50" relative="1" as="geometry">
            <mxPoint x="389.5" y="320" as="sourcePoint" />
            <mxPoint x="389.5" y="360" as="targetPoint" />
          </mxGeometry>
        </mxCell>
        <mxCell id="6GwFP3exg01wJ5yeqgeh-20" value="" style="edgeStyle=segmentEdgeStyle;endArrow=classic;html=1;curved=0;rounded=0;endSize=8;startSize=8;entryX=0.5;entryY=0;entryDx=0;entryDy=0;" edge="1" parent="WIyWlLk6GJQsqaUBKTNV-1" target="6GwFP3exg01wJ5yeqgeh-6">
          <mxGeometry width="50" height="50" relative="1" as="geometry">
            <mxPoint x="470" y="400" as="sourcePoint" />
            <mxPoint x="600" y="470" as="targetPoint" />
          </mxGeometry>
        </mxCell>
        <mxCell id="6GwFP3exg01wJ5yeqgeh-22" value="" style="shape=partialRectangle;whiteSpace=wrap;html=1;bottom=0;right=0;fillColor=none;rotation=-180;" vertex="1" parent="WIyWlLk6GJQsqaUBKTNV-1">
          <mxGeometry x="390" y="540" width="210" height="20" as="geometry" />
        </mxCell>
        <mxCell id="6GwFP3exg01wJ5yeqgeh-23" value="False" style="text;html=1;strokeColor=none;fillColor=none;align=center;verticalAlign=middle;whiteSpace=wrap;rounded=0;" vertex="1" parent="WIyWlLk6GJQsqaUBKTNV-1">
          <mxGeometry x="472.5" y="370" width="60" height="30" as="geometry" />
        </mxCell>
        <mxCell id="6GwFP3exg01wJ5yeqgeh-24" value="True" style="text;html=1;strokeColor=none;fillColor=none;align=center;verticalAlign=middle;whiteSpace=wrap;rounded=0;" vertex="1" parent="WIyWlLk6GJQsqaUBKTNV-1">
          <mxGeometry x="312.5" y="450" width="60" height="30" as="geometry" />
        </mxCell>
      </root>
    </mxGraphModel>
  </diagram>
</mxfile>
